#N canvas 0 0 1440 878 10;
#N canvas 0 22 450 300 (subpatch) 0;
#X array sample-1 441000 float 2;
#X coords 0 1 441000 -1 200 140 1 0 0;
#X restore 42 957 graph;
#X obj 52 653 dac~ 1 2;
#X obj 929 273 tabwrite~ sample-1;
#X obj 41 341 tabplay~ sample-1;
#X obj 41 432 throw~ output;
#X obj 52 620 catch~ output;
#N canvas 0 22 450 300 (subpatch) 0;
#X array sample-2 441000 float 2;
#X coords 0 1 441000 -1 200 140 1 0 0;
#X restore 252 957 graph;
#N canvas 0 22 450 300 (subpatch) 0;
#X array sample-3 441000 float 2;
#X coords 0 1 441000 -1 200 140 1 0 0;
#X restore 462 957 graph;
#N canvas 0 22 450 300 (subpatch) 0;
#X array sample-4 441000 float 2;
#X coords 0 1 441000 -1 200 140 1 0 0;
#X restore 672 957 graph;
#X obj 861 239 r~ input;
#N canvas 681 32 252 276 loop-1 0;
#X obj 36 17 inlet;
#X obj 39 204 outlet;
#X obj 67 47 r sampleLength1;
#X obj 53 137 print;
#X obj 60 83 i;
#X msg 34 108 0 \$1;
#X obj 36 62 bng 15 250 50 0 empty empty empty 17 7 0 10 -262144 -1
-1;
#X obj 109 204 s flash-1;
#X obj 116 136 delay 100;
#X obj 103 166 tgl 15 0 empty empty empty 17 7 0 10 -262144 -1 -1 1
1;
#X connect 0 0 6 0;
#X connect 0 0 8 0;
#X connect 0 0 9 0;
#X connect 2 0 4 1;
#X connect 2 0 4 0;
#X connect 4 0 5 0;
#X connect 5 0 1 0;
#X connect 6 0 4 0;
#X connect 8 0 9 0;
#X restore 119 317 pd loop-1;
#X obj 519 580 r flash-1;
#X obj 1089 227 r~ input;
#N canvas 403 169 798 526 recorder-2 0;
#X obj 357 254 tgl 15 0 empty empty empty 17 7 0 10 -262144 -1 -1 0
1;
#X obj 357 273 select 1 0;
#X msg 402 297 stop;
#X text 295 422 timer returns the duration of the recorded sample;
#X obj 439 372 timer 1 sample;
#X text 294 434 (interval between start and stop) in samples;
#X msg 357 297 start;
#X obj 328 389 outlet;
#X obj 479 277 s button-2;
#X obj 439 398 s sampleLength2;
#X obj 355 229 f;
#X text 420 206 debounce for 3ms;
#X obj 356 207 delay 200;
#X obj 398 48 inlet;
#X obj 436 110 tgl 15 0 empty empty empty 17 7 0 10 -262144 -1 -1 0
1;
#X obj 436 87 sel 1;
#X obj 375 128 r cv-clock;
#X obj 375 149 spigot;
#X obj 375 174 tgl 15 0 empty empty empty 17 7 0 10 -262144 -1 -1 0
1;
#X obj 399 174 sel 0;
#X obj 463 135 s record-latch;
#X obj 357 321 print recording-2;
#X obj 471 115 print channel armed-2;
#X msg 276 320 1;
#X obj 151 394 s bela_digitalOut14;
#X msg 277 357 0;
#X connect 0 0 1 0;
#X connect 0 0 8 0;
#X connect 1 0 4 0;
#X connect 1 0 6 0;
#X connect 1 0 7 0;
#X connect 1 0 23 0;
#X connect 1 1 2 0;
#X connect 1 1 4 1;
#X connect 1 1 25 0;
#X connect 2 0 7 0;
#X connect 2 0 21 0;
#X connect 4 0 9 0;
#X connect 6 0 21 0;
#X connect 10 0 0 0;
#X connect 12 0 10 0;
#X connect 13 0 15 0;
#X connect 14 0 17 1;
#X connect 14 0 20 0;
#X connect 14 0 22 0;
#X connect 15 0 14 0;
#X connect 16 0 17 0;
#X connect 17 0 18 0;
#X connect 18 0 19 0;
#X connect 18 0 12 0;
#X connect 18 0 10 1;
#X connect 19 0 14 0;
#X connect 23 0 24 0;
#X connect 25 0 24 0;
#X restore 1152 245 pd recorder-2;
#X obj 1089 273 tabwrite~ sample-2;
#X obj 201 432 throw~ output;
#N canvas 613 22 252 276 loop-2 0;
#X obj 36 17 inlet;
#X obj 39 204 outlet;
#X obj 53 137 print;
#X obj 60 83 i;
#X msg 34 108 0 \$1;
#X obj 36 62 bng 15 250 50 0 empty empty empty 17 7 0 10 -262144 -1
-1;
#X obj 116 136 delay 100;
#X obj 103 166 tgl 15 0 empty empty empty 17 7 0 10 -262144 -1 -1 1
1;
#X obj 67 47 r sampleLength2;
#X obj 109 204 s flash-2;
#X connect 0 0 5 0;
#X connect 0 0 6 0;
#X connect 0 0 7 0;
#X connect 3 0 4 0;
#X connect 4 0 1 0;
#X connect 5 0 3 0;
#X connect 6 0 7 0;
#X connect 7 0 9 0;
#X connect 8 0 3 1;
#X connect 8 0 3 0;
#X restore 279 319 pd loop-2;
#X obj 201 343 tabplay~ sample-2;
#X obj 41 404 *~;
#X obj 201 404 *~;
#X obj 599 580 r flash-2;
#X obj 391 432 throw~ output;
#X obj 391 404 *~;
#N canvas 613 22 252 276 loop-3 0;
#X obj 36 17 inlet;
#X obj 39 204 outlet;
#X obj 53 137 print;
#X obj 60 83 i;
#X msg 34 108 0 \$1;
#X obj 36 62 bng 15 250 50 0 empty empty empty 17 7 0 10 -262144 -1
-1;
#X obj 116 136 delay 100;
#X obj 103 166 tgl 15 0 empty empty empty 17 7 0 10 -262144 -1 -1 1
1;
#X obj 67 47 r sampleLength3;
#X obj 109 204 s flash-3;
#X connect 0 0 5 0;
#X connect 0 0 6 0;
#X connect 0 0 7 0;
#X connect 3 0 4 0;
#X connect 4 0 1 0;
#X connect 5 0 3 0;
#X connect 6 0 7 0;
#X connect 7 0 9 0;
#X connect 8 0 3 1;
#X connect 8 0 3 0;
#X restore 469 319 pd loop-3;
#X obj 391 343 tabplay~ sample-3;
#X obj 679 580 r flash-3;
#X obj 1249 227 r~ input;
#X obj 1249 273 tabwrite~ sample-3;
#N canvas 373 242 768 503 recorder-3 0;
#X obj 326 249 tgl 15 0 empty empty empty 17 7 0 10 -262144 -1 -1 0
1;
#X obj 326 268 select 1 0;
#X msg 371 292 stop;
#X text 264 417 timer returns the duration of the recorded sample;
#X obj 408 367 timer 1 sample;
#X text 263 429 (interval between start and stop) in samples;
#X msg 326 292 start;
#X obj 297 384 outlet;
#X obj 448 272 s button-3;
#X obj 326 316 print recording-3;
#X obj 408 393 s sampleLength3;
#X obj 323 223 f;
#X text 388 200 debounce for 3ms;
#X obj 324 201 delay 200;
#X obj 388 44 inlet;
#X obj 404 104 tgl 15 0 empty empty empty 17 7 0 10 -262144 -1 -1 0
1;
#X obj 404 81 sel 1;
#X obj 343 122 r cv-clock;
#X obj 343 143 spigot;
#X obj 343 168 tgl 15 0 empty empty empty 17 7 0 10 -262144 -1 -1 0
1;
#X obj 367 168 sel 0;
#X obj 431 129 s record-latch;
#X obj 439 109 print channel armed-3;
#X obj 141 371 s bela_digitalOut16;
#X msg 200 296 1;
#X msg 201 325 0;
#X connect 0 0 1 0;
#X connect 0 0 8 0;
#X connect 1 0 4 0;
#X connect 1 0 6 0;
#X connect 1 0 7 0;
#X connect 1 0 24 0;
#X connect 1 1 2 0;
#X connect 1 1 4 1;
#X connect 1 1 25 0;
#X connect 2 0 7 0;
#X connect 2 0 9 0;
#X connect 4 0 10 0;
#X connect 6 0 9 0;
#X connect 11 0 0 0;
#X connect 13 0 11 0;
#X connect 14 0 16 0;
#X connect 15 0 18 1;
#X connect 15 0 21 0;
#X connect 15 0 22 0;
#X connect 16 0 15 0;
#X connect 17 0 18 0;
#X connect 18 0 19 0;
#X connect 19 0 20 0;
#X connect 19 0 13 0;
#X connect 19 0 11 1;
#X connect 20 0 15 0;
#X connect 24 0 23 0;
#X connect 25 0 23 0;
#X restore 1312 245 pd recorder-3;
#X obj 1399 227 r~ input;
#N canvas 516 44 681 499 recorder-4 0;
#X obj 272 233 tgl 15 0 empty empty empty 17 7 0 10 -262144 -1 -1 0
1;
#X obj 272 252 select 1 0;
#X msg 317 276 stop;
#X text 210 401 timer returns the duration of the recorded sample;
#X obj 354 351 timer 1 sample;
#X text 209 413 (interval between start and stop) in samples;
#X msg 272 276 start;
#X obj 243 368 outlet;
#X obj 394 256 s button-4;
#X obj 272 300 print recording-4;
#X obj 354 377 s sampleLength4;
#X obj 270 210 f;
#X text 335 187 debounce for 3ms;
#X obj 271 188 delay 200;
#X obj 312 27 inlet;
#X obj 351 91 tgl 15 0 empty empty empty 17 7 0 10 -262144 -1 -1 0
1;
#X obj 351 68 sel 1;
#X obj 290 109 r cv-clock;
#X obj 290 130 spigot;
#X obj 290 155 tgl 15 0 empty empty empty 17 7 0 10 -262144 -1 -1 0
1;
#X obj 314 155 sel 0;
#X obj 378 116 s record-latch;
#X obj 386 97 print channel armed-4;
#X msg 170 273 1;
#X msg 171 302 0;
#X obj 111 348 s bela_digitalOut20;
#X connect 0 0 1 0;
#X connect 0 0 8 0;
#X connect 1 0 4 0;
#X connect 1 0 6 0;
#X connect 1 0 7 0;
#X connect 1 0 23 0;
#X connect 1 1 2 0;
#X connect 1 1 4 1;
#X connect 1 1 24 0;
#X connect 2 0 7 0;
#X connect 2 0 9 0;
#X connect 4 0 10 0;
#X connect 6 0 9 0;
#X connect 11 0 0 0;
#X connect 13 0 11 0;
#X connect 14 0 16 0;
#X connect 15 0 18 1;
#X connect 15 0 21 0;
#X connect 15 0 22 0;
#X connect 16 0 15 0;
#X connect 17 0 18 0;
#X connect 18 0 19 0;
#X connect 19 0 20 0;
#X connect 19 0 13 0;
#X connect 19 0 11 1;
#X connect 20 0 15 0;
#X connect 23 0 25 0;
#X connect 24 0 25 0;
#X restore 1462 245 pd recorder-4;
#X obj 1399 273 tabwrite~ sample-4;
#X obj 759 580 r flash-4;
#X obj 581 432 throw~ output;
#X obj 581 404 *~;
#N canvas 613 22 252 276 loop-4 0;
#X obj 36 17 inlet;
#X obj 39 204 outlet;
#X obj 53 137 print;
#X obj 60 83 i;
#X msg 34 108 0 \$1;
#X obj 36 62 bng 15 250 50 0 empty empty empty 17 7 0 10 -262144 -1
-1;
#X obj 116 136 delay 100;
#X obj 103 166 tgl 15 0 empty empty empty 17 7 0 10 -262144 -1 -1 1
1;
#X obj 67 47 r sampleLength4;
#X obj 109 204 s flash-4;
#X connect 0 0 5 0;
#X connect 0 0 6 0;
#X connect 0 0 7 0;
#X connect 3 0 4 0;
#X connect 4 0 1 0;
#X connect 5 0 3 0;
#X connect 6 0 7 0;
#X connect 7 0 9 0;
#X connect 8 0 3 1;
#X connect 8 0 3 0;
#X restore 659 319 pd loop-4;
#X obj 581 343 tabplay~ sample-4;
#X obj 259 597 threshold~ 0.3 50 0.1 50;
#X obj 259 620 s cv-clock;
#X obj 834 580 r record-latch;
#X obj 17 232 r cv-clock;
#X text 47 488 audio input;
#X text 44 590 audio output;
#X text 542 544 Leds show loop restart \, last two show when record
is armed;
#N canvas 0 22 310 226 selector 0;
#X obj 37 37 inlet~;
#X obj 173 54 metro 20;
#X obj 188 32 loadbang;
#X obj 37 79 snapshot~;
#X obj 37 120 i;
#X obj 37 141 change;
#X obj 37 162 outlet;
#X msg 118 142 0;
#X connect 0 0 3 0;
#X connect 1 0 3 0;
#X connect 2 0 1 0;
#X connect 2 0 7 0;
#X connect 3 0 4 0;
#X connect 4 0 5 0;
#X connect 5 0 6 0;
#X connect 7 0 6 0;
#X restore 862 404 pd selector;
#X obj 862 383 adc~ 7;
#X text 999 352 Pot 5 controls whether loop is locked to clock;
#X obj 862 425 send clock-select;
#X text 999 392 based on the clock signal. If it's all the way right
;
#X text 999 412 then the loops restarted are based on their length.
;
#X text 999 372 If it's all the way left then the loops are restarted
;
#X text 999 432 This means you can change the clock before recording
each;
#X text 999 452 for interesting polyrhythms but it is also prone to
phasing;
#X text 999 472 if the loops run for a long time.;
#X obj 92 234 r clock-select;
#X obj 92 265 == 0;
#X obj 132 265 == 1;
#X obj 93 291 spigot;
#X obj 143 291 spigot;
#X obj 207 232 r cv-clock;
#X obj 282 234 r clock-select;
#X obj 282 265 == 0;
#X obj 322 265 == 1;
#X obj 283 291 spigot;
#X obj 333 291 spigot;
#X obj 387 232 r cv-clock;
#X obj 462 234 r clock-select;
#X obj 462 265 == 0;
#X obj 502 265 == 1;
#X obj 463 291 spigot;
#X obj 513 291 spigot;
#X obj 567 232 r cv-clock;
#X obj 642 234 r clock-select;
#X obj 642 265 == 0;
#X obj 682 265 == 1;
#X obj 643 291 spigot;
#X obj 693 291 spigot;
#X text 1076 53 clock received in CV in 7;
#X text 149 200 The first 4 pots control the volume of each loop;
#X text 245 525 CV In 7 is the clock;
#X text 185 548 Make sure it's configured as analog on the back;
#X text 290 914 Store up to 10 seconds for each channel;
#X text 1076 33 Push button to arm channel for record \, record starts
on next;
#X obj 865 357 hsl 80 15 0 1 0 0 empty empty empty -2 -8 0 10 -262144
-1 -1 0 1;
#X text 1529 179 Read buttons with debounce;
#X obj 1323 177 delay 3;
#X obj 1294 178 f;
#X obj 518 625 bng 15 250 50 0 empty empty empty 17 7 0 10 -262144
-1 -1;
#X obj 558 625 bng 15 250 50 0 empty empty empty 17 7 0 10 -262144
-1 -1;
#X obj 598 625 bng 15 250 50 0 empty empty empty 17 7 0 10 -262144
-1 -1;
#X obj 638 625 bng 15 250 50 0 empty empty empty 17 7 0 10 -262144
-1 -1;
#X obj 678 625 bng 15 250 50 0 empty empty empty 17 7 0 10 -262144
-1 -1;
#X obj 718 625 bng 15 250 50 0 empty empty empty 17 7 0 10 -262144
-1 -1;
#X obj 758 625 bng 15 250 50 0 empty empty empty 17 7 0 10 -262144
-1 -1;
#X obj 798 625 bng 15 250 50 0 empty empty empty 17 7 0 10 -262144
-1 -1;
#X obj 838 625 bng 15 250 50 0 empty empty empty 17 7 0 10 -262144
-1 -1;
#X obj 878 625 bng 15 250 50 0 empty empty empty 17 7 0 10 -262144
-1 -1;
#X obj 259 576 phasor~ 0.1;
#X text 211 656 Length (in ms) of the initial sample;
#X obj 213 766 bng 15 250 50 0 empty empty empty 17 7 0 10 -262144
-1 -1;
#X obj 247 757 metro;
#X msg 243 724 bang;
#X obj 240 779 s cv-clock;
#X obj 235 670 r sampleLength1;
#X floatatom 296 739 5 0 0 0 - - -;
#X obj 296 718 / 48;
#X obj 245 696 t b f;
#N canvas 0 0 1432 876 audio_in 0;
#X obj 87 217 list;
#X obj 87 177 metro 200;
#X text 157 177 Throttle printing;
#X obj 295 77 r bela_trill;
#X obj 295 114 route mycraft;
#X obj 1373 382 osc~ 440;
#X obj 1373 403 *~;
#X obj 1436 402 *~;
#X obj 1518 400 *~;
#X text 15 409 amp control;
#X obj 1603 400 *~;
#X obj 1684 399 *~;
#X obj 1768 397 *~;
#X obj 1853 396 *~;
#X obj 1937 395 *~;
#X obj 1436 381 osc~ 466.16;
#X obj 1518 379 osc~ 493.88;
#X obj 1603 379 osc~ 523.25;
#X obj 1684 378 osc~ 554.37;
#X obj 1768 376 osc~ 587.33;
#X obj 1853 375 osc~ 622.25;
#X obj 1937 374 osc~ 659.25;
#X obj 295 153 unpack f f f f f f f f f f f f f f f f f f f f f f f
f f f f f f f;
#X obj 1308 405 *~;
#X obj 1227 405 *~;
#X obj 1146 404 *~;
#X obj 1066 405 *~;
#X obj 987 406 *~;
#X obj 905 406 *~;
#X obj 838 405 *~;
#X obj 838 384 osc~ 220;
#X obj 905 385 osc~ 246.94;
#X obj 987 385 osc~ 261.63;
#X obj 1066 384 osc~ 293.66;
#X obj 1146 383 osc~ 329.63;
#X obj 1227 384 osc~ 349.23;
#X obj 1308 384 osc~ 392;
#X obj 88 257 print audioIn;
#X obj 769 384 osc~ 196;
#X obj 769 407 *~;
#X obj 678 384 osc~ 174.61;
#X obj 678 407 *~;
#X obj 597 408 *~;
#X obj 512 408 *~;
#X obj 595 385 osc~ 164.81;
#X obj 512 385 osc~ 146.83;
#X obj 429 407 *~;
#X obj 344 407 *~;
#X obj 281 407 *~;
#X obj 225 407 *~;
#X obj 147 407 *~;
#X obj 429 384 osc~ 130.81;
#X obj 344 384 osc~ 123.47;
#X obj 281 384 osc~ 110;
#X obj 225 384 osc~ 98;
#X obj 147 384 osc~ 87.31;
#X obj 69 407 *~;
#X obj 69 384 osc~ 82.41;
#X obj 66 136 inlet;
#X obj 872 646 outlet~;
#X obj 349 363 *~ 440;
#X obj 514 363 *~ 440;
#X obj 1067 361 *~ 440;
#X obj 353 342 * 10;
#X obj 517 341 * 10;
#X obj 1066 335 * 15;
#X connect 0 0 37 0;
#X connect 1 0 0 0;
#X connect 3 0 4 0;
#X connect 4 0 0 1;
#X connect 4 0 22 0;
#X connect 5 0 6 0;
#X connect 6 0 59 0;
#X connect 7 0 59 0;
#X connect 8 0 59 0;
#X connect 10 0 59 0;
#X connect 11 0 59 0;
#X connect 12 0 59 0;
#X connect 13 0 59 0;
#X connect 14 0 59 0;
#X connect 15 0 7 0;
#X connect 16 0 8 0;
#X connect 17 0 10 0;
#X connect 18 0 11 0;
#X connect 19 0 12 0;
#X connect 20 0 13 0;
#X connect 21 0 14 0;
#X connect 22 8 56 1;
#X connect 22 9 50 1;
#X connect 22 10 49 1;
#X connect 22 11 48 1;
#X connect 22 12 63 0;
#X connect 22 13 46 1;
#X connect 22 15 64 0;
#X connect 22 16 42 1;
#X connect 22 17 41 1;
#X connect 22 18 39 1;
#X connect 22 19 29 1;
#X connect 22 20 28 1;
#X connect 22 21 27 1;
#X connect 22 22 65 0;
#X connect 22 23 25 1;
#X connect 22 24 24 1;
#X connect 22 25 23 1;
#X connect 22 26 6 1;
#X connect 22 27 7 1;
#X connect 22 28 8 1;
#X connect 22 29 10 1;
#X connect 23 0 59 0;
#X connect 24 0 59 0;
#X connect 25 0 59 0;
#X connect 26 0 59 0;
#X connect 27 0 59 0;
#X connect 28 0 59 0;
#X connect 29 0 59 0;
#X connect 30 0 29 0;
#X connect 31 0 28 0;
#X connect 32 0 27 0;
#X connect 33 0 26 0;
#X connect 34 0 25 0;
#X connect 35 0 24 0;
#X connect 36 0 23 0;
#X connect 38 0 39 0;
#X connect 39 0 59 0;
#X connect 40 0 41 0;
#X connect 41 0 59 0;
#X connect 42 0 59 0;
#X connect 43 0 59 0;
#X connect 44 0 42 0;
#X connect 45 0 43 0;
#X connect 46 0 59 0;
#X connect 47 0 59 0;
#X connect 48 0 59 0;
#X connect 49 0 59 0;
#X connect 50 0 59 0;
#X connect 51 0 46 0;
#X connect 52 0 47 0;
#X connect 53 0 48 0;
#X connect 54 0 49 0;
#X connect 55 0 50 0;
#X connect 56 0 59 0;
#X connect 57 0 56 0;
#X connect 58 0 1 0;
#X connect 60 0 52 0;
#X connect 61 0 45 0;
#X connect 62 0 33 0;
#X connect 63 0 60 0;
#X connect 63 0 47 1;
#X connect 64 0 61 0;
#X connect 64 0 43 1;
#X connect 65 0 26 1;
#X connect 65 0 62 0;
#X restore 58 538 pd audio_in;
#X obj 50 510 loadbang;
#X obj 58 559 s~ input;
#X obj 25 -80 loadbang;
#X obj 25 19 s bela_setTrill;
#X text 89 -80 First initialise the Trill sensor;
#X text 59 -47 Message: [new <sensor_id> <bus> <device> <address=255>(
;
#X text 24 85 device that was successfully initialised. The message
;
#X text 24 95 will contain: <sensor_id> <device> <mode> <address>;
#X text 23 74 bela_trillCreated will receive a message for each;
#X obj 28 127 r bela_trillCreated;
#X obj 28 156 print bela_trillCreated;
#X text 25 48 -------------;
#X msg 613 386 1;
#X obj 615 364 loadbang;
#X msg 423 386 1;
#X obj 425 364 loadbang;
#X msg 233 386 1;
#X obj 235 364 loadbang;
#X msg 73 386 1;
#X obj 75 364 loadbang;
#N canvas 0 0 1432 748 audio_in 0;
#X obj 86 209 list;
#X obj 86 169 metro 200;
#X text 156 169 Throttle printing;
#X obj 294 69 r bela_trill;
#X obj 294 106 route mycraft;
#X obj 1192 374 osc~ 440;
#X obj 1192 395 *~;
#X obj 1192 353 *~ 880;
#X obj 1255 394 *~;
#X obj 1255 352 *~ 880;
#X obj 1337 392 *~;
#X obj 1337 350 *~ 880;
#X text 571 354 freq control;
#X text 577 398 amp control;
#X obj 1422 392 *~;
#X obj 1422 350 *~ 880;
#X obj 1503 391 *~;
#X obj 1503 349 *~ 880;
#X obj 1587 389 *~;
#X obj 1587 347 *~ 880;
#X obj 1672 388 *~;
#X obj 1672 346 *~ 880;
#X obj 1756 387 *~;
#X obj 1756 345 *~ 880;
#X obj 1255 373 osc~ 466.16;
#X obj 1337 371 osc~ 493.88;
#X obj 1422 371 osc~ 523.25;
#X obj 1503 370 osc~ 554.37;
#X obj 1587 368 osc~ 587.33;
#X obj 1672 367 osc~ 622.25;
#X obj 1756 366 osc~ 659.25;
#X obj 294 145 unpack f f f f f f f f f f f f f f f f f f f f f f f
f f f f f f f;
#X obj 1127 397 *~;
#X obj 1127 355 *~ 880;
#X obj 1046 397 *~;
#X obj 1046 355 *~ 880;
#X obj 965 396 *~;
#X obj 965 354 *~ 880;
#X obj 885 397 *~;
#X obj 885 355 *~ 880;
#X obj 806 398 *~;
#X obj 806 356 *~ 880;
#X obj 724 398 *~;
#X obj 724 356 *~ 880;
#X obj 657 397 *~;
#X obj 657 355 *~ 880;
#X obj 657 376 osc~ 220;
#X obj 724 377 osc~ 246.94;
#X obj 806 377 osc~ 261.63;
#X obj 885 376 osc~ 293.66;
#X obj 965 375 osc~ 329.63;
#X obj 1046 376 osc~ 349.23;
#X obj 1127 376 osc~ 392;
#X obj 87 249 print audioIn;
#X obj 65 128 inlet;
#X obj 1144 561 outlet~;
#X text 677 148 Trill channel 5-29 for audio output;
#X obj 301 395 clone clone_synth 32;
#X msg 301 372 next \$1;
#X obj 303 416 *~;
#X connect 1 0 0 0;
#X connect 3 0 4 0;
#X connect 4 0 0 1;
#X connect 4 0 31 0;
#X connect 5 0 6 0;
#X connect 6 0 55 0;
#X connect 7 0 5 0;
#X connect 8 0 55 0;
#X connect 9 0 24 0;
#X connect 10 0 55 0;
#X connect 11 0 25 0;
#X connect 14 0 55 0;
#X connect 15 0 26 0;
#X connect 16 0 55 0;
#X connect 17 0 27 0;
#X connect 18 0 55 0;
#X connect 19 0 28 0;
#X connect 20 0 55 0;
#X connect 21 0 29 0;
#X connect 22 0 55 0;
#X connect 23 0 30 0;
#X connect 24 0 8 0;
#X connect 25 0 10 0;
#X connect 26 0 14 0;
#X connect 27 0 16 0;
#X connect 28 0 18 0;
#X connect 29 0 20 0;
#X connect 30 0 22 0;
#X connect 31 5 58 0;
#X connect 31 5 59 1;
#X connect 31 15 45 0;
#X connect 31 15 44 1;
#X connect 31 16 43 0;
#X connect 31 16 42 1;
#X connect 31 17 41 0;
#X connect 31 17 40 1;
#X connect 31 18 39 0;
#X connect 31 18 38 1;
#X connect 31 19 37 0;
#X connect 31 19 36 1;
#X connect 31 20 35 0;
#X connect 31 20 34 1;
#X connect 31 21 33 0;
#X connect 31 21 32 1;
#X connect 31 22 7 0;
#X connect 31 22 6 1;
#X connect 31 23 9 0;
#X connect 31 23 8 1;
#X connect 31 24 11 0;
#X connect 31 24 10 1;
#X connect 31 25 15 0;
#X connect 31 25 14 1;
#X connect 31 26 17 0;
#X connect 31 26 16 1;
#X connect 31 27 19 0;
#X connect 31 27 18 1;
#X connect 31 28 21 0;
#X connect 31 28 20 1;
#X connect 31 29 23 0;
#X connect 31 29 22 1;
#X connect 32 0 55 0;
#X connect 33 0 52 0;
#X connect 34 0 55 0;
#X connect 35 0 51 0;
#X connect 36 0 55 0;
#X connect 37 0 50 0;
#X connect 38 0 55 0;
#X connect 39 0 49 0;
#X connect 40 0 55 0;
#X connect 41 0 48 0;
#X connect 42 0 55 0;
#X connect 43 0 47 0;
#X connect 44 0 55 0;
#X connect 45 0 46 0;
#X connect 46 0 44 0;
#X connect 47 0 42 0;
#X connect 48 0 40 0;
#X connect 49 0 38 0;
#X connect 50 0 36 0;
#X connect 51 0 34 0;
#X connect 52 0 32 0;
#X connect 54 0 1 0;
#X connect 58 0 57 0;
#X restore 117 515 pd audio_in;
#X text 140 502 WIP;
#X obj 19 568 dac~;
#X text 260 9 pre 6 - threshold 0.56 vs 0.01;
#N canvas 0 0 1432 876 audio_in 0;
#X obj 87 217 list;
#X obj 87 177 metro 200;
#X text 157 177 Throttle printing;
#X obj 716 12 r bela_trill;
#X obj 716 49 route mycraft;
#X obj 1373 382 osc~ 440;
#X obj 1373 403 *~;
#X obj 1436 402 *~;
#X obj 1518 400 *~;
#X text 15 409 amp control;
#X obj 1603 400 *~;
#X obj 1684 399 *~;
#X obj 1768 397 *~;
#X obj 1853 396 *~;
#X obj 1937 395 *~;
#X obj 1436 381 osc~ 466.16;
#X obj 1518 379 osc~ 493.88;
#X obj 1603 379 osc~ 523.25;
#X obj 1684 378 osc~ 554.37;
#X obj 1768 376 osc~ 587.33;
#X obj 1853 375 osc~ 622.25;
#X obj 1937 374 osc~ 659.25;
#X obj 716 88 unpack f f f f f f f f f f f f f f f f f f f f f f f
f f f f f f f;
#X obj 1308 405 *~;
#X obj 1227 405 *~;
#X obj 1146 404 *~;
#X obj 1066 405 *~;
#X obj 987 406 *~;
#X obj 905 406 *~;
#X obj 838 405 *~;
#X obj 838 384 osc~ 220;
#X obj 905 385 osc~ 246.94;
#X obj 987 385 osc~ 261.63;
#X obj 1066 384 osc~ 293.66;
#X obj 1146 383 osc~ 329.63;
#X obj 1227 384 osc~ 349.23;
#X obj 1308 384 osc~ 392;
#X obj 88 257 print audioIn;
#X text 1151 94 Trill channel 5-29 for audio output;
#X obj 769 384 osc~ 196;
#X obj 769 407 *~;
#X obj 678 384 osc~ 174.61;
#X obj 678 407 *~;
#X obj 597 408 *~;
#X obj 512 408 *~;
#X obj 595 385 osc~ 164.81;
#X obj 512 385 osc~ 146.83;
#X obj 429 407 *~;
#X obj 344 407 *~;
#X obj 281 407 *~;
#X obj 225 407 *~;
#X obj 147 407 *~;
#X obj 429 384 osc~ 130.81;
#X obj 344 384 osc~ 123.47;
#X obj 281 384 osc~ 110;
#X obj 225 384 osc~ 98;
#X obj 147 384 osc~ 87.31;
#X obj 69 407 *~;
#X obj 69 384 osc~ 82.41;
#X obj 66 136 inlet;
#X obj 872 646 outlet~;
#X obj 349 363 *~ 440;
#X obj 514 363 *~ 440;
#X obj 1067 361 *~ 440;
#X obj 358 342 > 0.3;
#X obj 435 361 > 0.3;
#X obj 518 339 > 0.3;
#X obj 598 355 > 0.3;
#X obj 678 355 > 0.3;
#X obj 778 355 > 0.3;
#X obj 839 355 > 0.3;
#X obj 909 355 > 0.3;
#X obj 989 355 > 0.3;
#X obj 1069 338 > 0.3;
#X obj 1150 356 > 0.3;
#X obj 1229 357 > 0.3;
#X obj 1309 355 > 0.3;
#X obj 1369 355 > 0.3;
#X obj 1431 355 > 0.3;
#X obj 1521 355 > 0.3;
#X obj 1611 355 > 0.3;
#X obj 108 355 > 0.01;
#X obj 164 357 > 0.01;
#X obj 228 355 > 0.01;
#X obj 285 354 > 0.01;
#X connect 0 0 37 0;
#X connect 1 0 0 0;
#X connect 3 0 4 0;
#X connect 4 0 0 1;
#X connect 4 0 22 0;
#X connect 5 0 6 0;
#X connect 6 0 60 0;
#X connect 7 0 60 0;
#X connect 8 0 60 0;
#X connect 10 0 60 0;
#X connect 11 0 60 0;
#X connect 12 0 60 0;
#X connect 13 0 60 0;
#X connect 14 0 60 0;
#X connect 15 0 7 0;
#X connect 16 0 8 0;
#X connect 17 0 10 0;
#X connect 18 0 11 0;
#X connect 19 0 12 0;
#X connect 20 0 13 0;
#X connect 21 0 14 0;
#X connect 22 5 81 0;
#X connect 22 6 82 0;
#X connect 22 7 83 0;
#X connect 22 8 84 0;
#X connect 22 9 64 0;
#X connect 22 10 65 0;
#X connect 22 11 66 0;
#X connect 22 12 67 0;
#X connect 22 13 68 0;
#X connect 22 14 69 0;
#X connect 22 15 70 0;
#X connect 22 16 71 0;
#X connect 22 17 72 0;
#X connect 22 19 73 0;
#X connect 22 20 74 0;
#X connect 22 21 75 0;
#X connect 22 22 76 0;
#X connect 22 23 77 0;
#X connect 22 25 78 0;
#X connect 22 26 79 0;
#X connect 22 27 80 0;
#X connect 23 0 60 0;
#X connect 24 0 60 0;
#X connect 25 0 60 0;
#X connect 26 0 60 0;
#X connect 27 0 60 0;
#X connect 28 0 60 0;
#X connect 29 0 60 0;
#X connect 30 0 29 0;
#X connect 31 0 28 0;
#X connect 32 0 27 0;
#X connect 33 0 26 0;
#X connect 34 0 25 0;
#X connect 35 0 24 0;
#X connect 36 0 23 0;
#X connect 39 0 40 0;
#X connect 40 0 60 0;
#X connect 41 0 42 0;
#X connect 42 0 60 0;
#X connect 43 0 60 0;
#X connect 44 0 60 0;
#X connect 45 0 43 0;
#X connect 46 0 44 0;
#X connect 47 0 60 0;
#X connect 48 0 60 0;
#X connect 49 0 60 0;
#X connect 50 0 60 0;
#X connect 51 0 60 0;
#X connect 52 0 47 0;
#X connect 53 0 48 0;
#X connect 54 0 49 0;
#X connect 55 0 50 0;
#X connect 56 0 51 0;
#X connect 57 0 60 0;
#X connect 58 0 57 0;
#X connect 59 0 1 0;
#X connect 61 0 53 0;
#X connect 62 0 46 0;
#X connect 63 0 33 0;
#X connect 64 0 61 0;
#X connect 64 0 48 1;
#X connect 65 0 47 1;
#X connect 66 0 44 1;
#X connect 66 0 62 0;
#X connect 67 0 43 1;
#X connect 68 0 42 1;
#X connect 69 0 40 1;
#X connect 70 0 29 1;
#X connect 71 0 28 1;
#X connect 72 0 27 1;
#X connect 73 0 26 1;
#X connect 73 0 63 0;
#X connect 74 0 25 1;
#X connect 75 0 24 1;
#X connect 76 0 23 1;
#X connect 77 0 6 1;
#X connect 78 0 7 1;
#X connect 79 0 8 1;
#X connect 80 0 10 1;
#X connect 81 0 57 1;
#X connect 82 0 51 1;
#X connect 83 0 50 1;
#X connect 84 0 49 1;
#X restore 203 491 pd audio_in;
#X text 205 476 with thresholds;
#X text 258 22 6 \, 0.01;
#X msg 25 -20 new mycraft 1 CRAFT \, prescaler mycraft 6 \, threshold
mycraft 0.01;
#X obj 523 -142 loadbang;
#X obj 523 -102 s bela_setDigital;
#X obj 523 -207 loadbang;
#X obj 523 -166 s bela_setDigital;
#X msg 523 -123 out 12 \, out 14 \, out 16 \, out 20 \, out 22;
#X msg 523 -188 in 17 \, in 18 \, in 21 \, in 11 \, in 13;
#X obj 1152 210 tgl 15 0 empty empty empty 17 7 0 10 -262144 -1 -1
0 1;
#X obj 1133 145 r bela_digitalIn18;
#X obj 1312 210 tgl 15 0 empty empty empty 17 7 0 10 -262144 -1 -1
0 1;
#X obj 1290 147 r bela_digitalIn21;
#X text 24 -247 =======================================================
;
#X text 24 -257 4 Channel Looper adapted for Trill Craft (in Project
X);
#X text 24 -117 Tove Grimstad Bang 2021;
#X text 24 -227 Adapted from work by Robert Jack \, a 4ch looper for
Pepper.;
#X text 24 -207 comment;
#X text 24 -187 Briefly describe what the patch does.;
#X text 24 -167 Recording a new sample where another one is already
stored;
#X text 24 -147 simply overrides the old one. Loop length is set by
the first sample;
#X msg 1336 825 stop;
#X obj 1337 1113 bng 15 250 50 0 empty empty empty 17 7 0 10 -262144
-1 -1;
#X obj 1326 803 bng 15 250 50 0 empty empty empty 17 7 0 10 -262144
-1 -1;
#X text 1347 800 bang: start;
#X text 1386 823 stop: cancel the delay;
#X text 1395 849 number: set delay time and start;
#X msg 1356 875 tempo 0.5 msec;
#X msg 1292 888 1;
#X msg 1325 1140 0;
#X obj 1325 771 tgl 15 0 empty empty empty 17 7 0 10 -262144 -1 -1
0 1;
#X obj 1208 1048 s bela_digitalOut22;
#X obj 1102 984 print samples cleared;
#X obj 1222 739 r bela_digitalIn13;
#X msg 1109 852 \; sample-1 const 0;
#X msg 1109 881 \; sample-2 const 0;
#X msg 1109 910 \; sample-3 const 0;
#X msg 1109 940 \; sample-4 const 0;
#X obj 1336 1086 delay 3000 1 msec;
#X msg 1346 849 3000;
#X text 1174 705 ----------- Clear all samples -----------;
#X text 521 -230 ------- Initilise inputs and outputs -------;
#X obj 1136 182 f;
#X obj 1165 181 delay 3;
#X text 944 581 ALL CHANNELS' LEDS LIGHT UP WHEN RECORD LATCH???;
#X obj 935 29 f;
#X obj 964 28 delay 3;
#X msg 882 155 1;
#X obj 935 91 tgl 15 0 empty empty empty 17 7 0 10 -262144 -1 -1 0
1;
#X obj 935 54 tgl 15 0 empty empty empty 17 7 0 10 -262144 -1 -1 0
1;
#X obj 935 71 sel 1;
#X floatatom 935 114 5 0 0 0 - - -;
#X msg 882 175 0;
#X obj 931 136 sel 1 0;
#X msg 975 187 stop;
#X msg 930 187 start;
#X obj 1015 189 s sampleLength1;
#X obj 939 220 print recording-1;
#X obj 1002 165 timer 1 sample;
#X obj 803 201 s bela_digitalOut12;
#X obj 940 -11 r bela_digitalIn17;
#X obj 1462 210 tgl 15 0 empty empty empty 17 7 0 10 -262144 -1 -1
0 1;
#X obj 1445 181 f;
#X obj 1474 180 delay 3;
#X obj 1442 144 r bela_digitalIn11;
#X connect 3 0 18 0;
#X connect 3 1 58 0;
#X connect 5 0 1 0;
#X connect 5 0 1 1;
#X connect 9 0 2 0;
#X connect 10 0 3 0;
#X connect 11 0 88 0;
#X connect 11 0 87 0;
#X connect 12 0 14 0;
#X connect 13 0 14 0;
#X connect 16 0 17 0;
#X connect 17 0 19 0;
#X connect 17 1 64 0;
#X connect 18 0 4 0;
#X connect 19 0 15 0;
#X connect 20 0 89 0;
#X connect 20 0 90 0;
#X connect 22 0 21 0;
#X connect 23 0 24 0;
#X connect 24 0 22 0;
#X connect 24 1 70 0;
#X connect 25 0 91 0;
#X connect 25 0 92 0;
#X connect 26 0 27 0;
#X connect 28 0 27 0;
#X connect 29 0 31 0;
#X connect 30 0 31 0;
#X connect 32 0 93 0;
#X connect 32 0 94 0;
#X connect 34 0 33 0;
#X connect 35 0 36 0;
#X connect 36 0 34 0;
#X connect 36 1 76 0;
#X connect 39 0 95 0;
#X connect 39 0 96 0;
#X connect 40 0 57 0;
#X connect 44 0 47 0;
#X connect 45 0 44 0;
#X connect 54 0 55 0;
#X connect 54 0 56 0;
#X connect 55 0 57 1;
#X connect 56 0 58 1;
#X connect 57 0 10 0;
#X connect 58 0 10 0;
#X connect 59 0 63 0;
#X connect 60 0 61 0;
#X connect 60 0 62 0;
#X connect 61 0 63 1;
#X connect 62 0 64 1;
#X connect 63 0 16 0;
#X connect 64 0 16 0;
#X connect 65 0 69 0;
#X connect 66 0 67 0;
#X connect 66 0 68 0;
#X connect 67 0 69 1;
#X connect 68 0 70 1;
#X connect 69 0 23 0;
#X connect 70 0 23 0;
#X connect 71 0 75 0;
#X connect 72 0 73 0;
#X connect 72 0 74 0;
#X connect 73 0 75 1;
#X connect 74 0 76 1;
#X connect 75 0 35 0;
#X connect 76 0 35 0;
#X connect 83 0 45 0;
#X connect 85 0 86 0;
#X connect 86 0 144 0;
#X connect 97 0 37 0;
#X connect 100 0 99 0;
#X connect 100 0 102 0;
#X connect 101 0 100 0;
#X connect 103 0 106 0;
#X connect 104 0 100 1;
#X connect 105 0 104 0;
#X connect 106 0 101 0;
#X connect 106 1 105 0;
#X connect 107 0 109 0;
#X connect 107 0 130 0;
#X connect 107 0 130 1;
#X connect 108 0 107 0;
#X connect 110 0 135 0;
#X connect 117 0 118 0;
#X connect 120 0 34 1;
#X connect 121 0 120 0;
#X connect 122 0 22 1;
#X connect 123 0 122 0;
#X connect 124 0 19 1;
#X connect 125 0 124 0;
#X connect 126 0 18 1;
#X connect 127 0 126 0;
#X connect 135 0 111 0;
#X connect 136 0 140 0;
#X connect 138 0 141 0;
#X connect 140 0 137 0;
#X connect 141 0 139 0;
#X connect 142 0 13 0;
#X connect 143 0 175 1;
#X connect 143 0 176 0;
#X connect 144 0 28 0;
#X connect 145 0 86 1;
#X connect 145 0 85 0;
#X connect 154 0 171 0;
#X connect 155 0 162 0;
#X connect 156 0 161 0;
#X connect 156 0 171 0;
#X connect 160 0 171 0;
#X connect 161 0 164 0;
#X connect 162 0 164 0;
#X connect 163 0 156 0;
#X connect 163 0 165 0;
#X connect 163 0 167 0;
#X connect 163 0 170 0;
#X connect 163 0 169 0;
#X connect 163 0 168 0;
#X connect 166 0 163 0;
#X connect 171 0 155 0;
#X connect 172 0 171 0;
#X connect 175 0 142 0;
#X connect 176 0 175 0;
#X connect 178 0 182 0;
#X connect 179 0 178 0;
#X connect 180 0 192 0;
#X connect 181 0 184 0;
#X connect 182 0 183 0;
#X connect 183 0 181 0;
#X connect 184 0 186 0;
#X connect 185 0 192 0;
#X connect 186 0 180 0;
#X connect 186 0 188 0;
#X connect 186 0 191 0;
#X connect 186 0 2 0;
#X connect 186 1 185 0;
#X connect 186 1 187 0;
#X connect 186 1 191 1;
#X connect 187 0 190 0;
#X connect 187 0 2 0;
#X connect 188 0 190 0;
#X connect 191 0 189 0;
#X connect 193 0 178 1;
#X connect 193 0 179 0;
#X connect 194 0 30 0;
#X connect 195 0 194 0;
#X connect 196 0 195 0;
#X connect 197 0 195 1;
#X connect 197 0 196 0;
