#N canvas 0 0 1440 878 10;
#N canvas 0 22 450 300 (subpatch) 0;
#X array sample-1 441000 float 2;
#X coords 0 1 441000 -1 200 140 1 0 0;
#X restore 42 957 graph;
#X obj 52 653 dac~ 1 2;
#X obj 810 270 tabwrite~ sample-1;
#X obj 41 341 tabplay~ sample-1;
#X obj 41 432 throw~ output;
#X obj 52 620 catch~ output;
#N canvas 0 22 450 300 (subpatch) 0;
#X array sample-2 441000 float 2;
#X coords 0 1 441000 -1 200 140 1 0 0;
#X restore 252 957 graph;
#N canvas 0 22 450 300 (subpatch) 0;
#X array sample-3 441000 float 2;
#X coords 0 1 441000 -1 200 140 1 0 0;
#X restore 462 957 graph;
#N canvas 0 22 450 300 (subpatch) 0;
#X array sample-4 441000 float 2;
#X coords 0 1 441000 -1 200 140 1 0 0;
#X restore 672 957 graph;
#N canvas 155 21 1004 650 recorder-1 0;
#X obj 164 104 tgl 15 0 empty empty empty 17 7 0 10 -262144 -1 -1 0
1;
#X obj 164 123 select 1 0;
#X msg 209 147 stop;
#X text 102 272 timer returns the duration of the recorded sample;
#X text 101 284 (interval between start and stop) in samples;
#X msg 164 147 start;
#X obj 246 248 s sampleLength1;
#X obj 147 35 inlet;
#X obj 164 171 print recording-1;
#X obj 135 239 outlet;
#X obj 286 127 s button-1;
#X obj 246 222 timer 1 sample;
#X msg 748 193 2000;
#X obj 730 279 bng 15 250 50 0 empty empty empty 17 7 0 10 -262144
-1 -1;
#X obj 704 158 bng 15 250 50 0 empty empty empty 17 7 0 10 -262144
-1 -1;
#X text 807 193 number: set delay time and start;
#X obj 729 252 delay 1000 1 msec;
#X msg 748 219 tempo 0.5 msec;
#X obj 716 116 tgl 15 0 empty empty empty 17 7 0 10 -262144 -1 -1 0
1;
#X obj 732 307 tgl 15 0 empty empty empty 17 7 0 10 -262144 -1 -1 0
1;
#X obj 562 218 s bela_digitalOut17;
#X obj 730 358 print off;
#X obj 577 250 print on;
#X msg 738 333 0;
#X connect 0 0 1 0;
#X connect 0 0 10 0;
#X connect 1 0 5 0;
#X connect 1 0 9 0;
#X connect 1 0 11 0;
#X connect 1 1 2 0;
#X connect 1 1 11 1;
#X connect 2 0 8 0;
#X connect 2 0 9 0;
#X connect 5 0 8 0;
#X connect 7 0 0 0;
#X connect 11 0 6 0;
#X connect 12 0 16 0;
#X connect 13 0 19 0;
#X connect 14 0 16 0;
#X connect 16 0 13 0;
#X connect 17 0 16 0;
#X connect 18 0 22 0;
#X connect 18 0 20 0;
#X connect 19 0 23 0;
#X connect 23 0 21 0;
#X connect 23 0 18 0;
#X connect 23 0 20 0;
#X restore 873 242 pd recorder-1;
#X obj 810 224 r~ input;
#N canvas 681 32 252 276 loop-1 0;
#X obj 36 17 inlet;
#X obj 39 204 outlet;
#X obj 67 47 r sampleLength1;
#X obj 53 137 print;
#X obj 60 83 i;
#X msg 34 108 0 \$1;
#X obj 36 62 bng 15 250 50 0 empty empty empty 17 7 0 10 -262144 -1
-1;
#X obj 109 204 s flash-1;
#X obj 116 136 delay 100;
#X obj 103 166 tgl 15 0 empty empty empty 17 7 0 10 -262144 -1 -1 0
1;
#X connect 0 0 6 0;
#X connect 0 0 8 0;
#X connect 0 0 9 0;
#X connect 2 0 4 1;
#X connect 2 0 4 0;
#X connect 4 0 5 0;
#X connect 5 0 1 0;
#X connect 6 0 4 0;
#X connect 8 0 9 0;
#X restore 119 317 pd loop-1;
#X obj 519 580 r flash-1;
#X obj 970 224 r~ input;
#N canvas 98 44 924 470 recorder-2 0;
#X obj 117 220 tgl 15 0 empty empty empty 17 7 0 10 -262144 -1 -1 0
1;
#X obj 117 239 select 1 0;
#X msg 162 263 stop;
#X text 55 388 timer returns the duration of the recorded sample;
#X obj 199 338 timer 1 sample;
#X text 54 400 (interval between start and stop) in samples;
#X msg 117 263 start;
#X obj 88 355 outlet;
#X obj 239 243 s button-2;
#X obj 199 364 s sampleLength2;
#X obj 115 195 f;
#X text 180 172 debounce for 3ms;
#X obj 116 173 delay 200;
#X obj 158 14 inlet;
#X obj 196 76 tgl 15 0 empty empty empty 17 7 0 10 -262144 -1 -1 0
1;
#X obj 196 53 sel 1;
#X obj 135 94 r cv-clock;
#X obj 135 115 spigot;
#X obj 135 140 tgl 15 0 empty empty empty 17 7 0 10 -262144 -1 -1 0
1;
#X obj 159 140 sel 0;
#X obj 223 101 s record-latch;
#X obj 117 287 print recording-2;
#X obj 231 81 print channel armed-2;
#X msg 691 166 2000;
#X obj 673 252 bng 15 250 50 0 empty empty empty 17 7 0 10 -262144
-1 -1;
#X obj 647 131 bng 15 250 50 0 empty empty empty 17 7 0 10 -262144
-1 -1;
#X text 750 166 number: set delay time and start;
#X obj 672 225 delay 1000 1 msec;
#X msg 691 192 tempo 0.5 msec;
#X obj 659 89 tgl 15 0 empty empty empty 17 7 0 10 -262144 -1 -1 0
1;
#X obj 675 280 tgl 15 0 empty empty empty 17 7 0 10 -262144 -1 -1 0
1;
#X obj 673 331 print off;
#X obj 520 223 print on;
#X msg 681 306 0;
#X obj 505 191 s bela_digitalOut11;
#X connect 0 0 1 0;
#X connect 0 0 8 0;
#X connect 1 0 4 0;
#X connect 1 0 6 0;
#X connect 1 0 7 0;
#X connect 1 1 2 0;
#X connect 1 1 4 1;
#X connect 2 0 7 0;
#X connect 2 0 21 0;
#X connect 4 0 9 0;
#X connect 6 0 21 0;
#X connect 10 0 0 0;
#X connect 12 0 10 0;
#X connect 13 0 15 0;
#X connect 14 0 17 1;
#X connect 14 0 20 0;
#X connect 14 0 22 0;
#X connect 15 0 14 0;
#X connect 16 0 17 0;
#X connect 17 0 18 0;
#X connect 18 0 19 0;
#X connect 18 0 12 0;
#X connect 18 0 10 1;
#X connect 19 0 14 0;
#X connect 23 0 27 0;
#X connect 24 0 30 0;
#X connect 25 0 27 0;
#X connect 27 0 24 0;
#X connect 28 0 27 0;
#X connect 29 0 32 0;
#X connect 29 0 34 0;
#X connect 30 0 33 0;
#X connect 33 0 31 0;
#X connect 33 0 29 0;
#X connect 33 0 34 0;
#X restore 1033 242 pd recorder-2;
#X obj 970 270 tabwrite~ sample-2;
#X obj 201 432 throw~ output;
#N canvas 613 22 252 276 loop-2 0;
#X obj 36 17 inlet;
#X obj 39 204 outlet;
#X obj 53 137 print;
#X obj 60 83 i;
#X msg 34 108 0 \$1;
#X obj 36 62 bng 15 250 50 0 empty empty empty 17 7 0 10 -262144 -1
-1;
#X obj 116 136 delay 100;
#X obj 103 166 tgl 15 0 empty empty empty 17 7 0 10 -262144 -1 -1 0
1;
#X obj 67 47 r sampleLength2;
#X obj 109 204 s flash-2;
#X connect 0 0 5 0;
#X connect 0 0 6 0;
#X connect 0 0 7 0;
#X connect 3 0 4 0;
#X connect 4 0 1 0;
#X connect 5 0 3 0;
#X connect 6 0 7 0;
#X connect 7 0 9 0;
#X connect 8 0 3 1;
#X connect 8 0 3 0;
#X restore 279 319 pd loop-2;
#X obj 201 343 tabplay~ sample-2;
#X obj 41 404 *~;
#X obj 201 404 *~;
#X obj 599 580 r flash-2;
#X obj 391 432 throw~ output;
#X obj 391 404 *~;
#N canvas 613 22 252 276 loop-3 0;
#X obj 36 17 inlet;
#X obj 39 204 outlet;
#X obj 53 137 print;
#X obj 60 83 i;
#X msg 34 108 0 \$1;
#X obj 36 62 bng 15 250 50 0 empty empty empty 17 7 0 10 -262144 -1
-1;
#X obj 116 136 delay 100;
#X obj 103 166 tgl 15 0 empty empty empty 17 7 0 10 -262144 -1 -1 0
1;
#X obj 67 47 r sampleLength3;
#X obj 109 204 s flash-3;
#X connect 0 0 5 0;
#X connect 0 0 6 0;
#X connect 0 0 7 0;
#X connect 3 0 4 0;
#X connect 4 0 1 0;
#X connect 5 0 3 0;
#X connect 6 0 7 0;
#X connect 7 0 9 0;
#X connect 8 0 3 1;
#X connect 8 0 3 0;
#X restore 469 319 pd loop-3;
#X obj 391 343 tabplay~ sample-3;
#X obj 679 580 r flash-3;
#X obj 1130 224 r~ input;
#X obj 1130 270 tabwrite~ sample-3;
#N canvas 336 375 1012 503 recorder-3 0;
#X obj 118 221 tgl 15 0 empty empty empty 17 7 0 10 -262144 -1 -1 0
1;
#X obj 118 240 select 1 0;
#X msg 163 264 stop;
#X text 56 389 timer returns the duration of the recorded sample;
#X obj 200 339 timer 1 sample;
#X text 55 401 (interval between start and stop) in samples;
#X msg 118 264 start;
#X obj 89 356 outlet;
#X obj 240 244 s button-3;
#X obj 118 288 print recording-3;
#X obj 200 365 s sampleLength3;
#X obj 115 195 f;
#X text 180 172 debounce for 3ms;
#X obj 116 173 delay 200;
#X obj 180 16 inlet;
#X obj 196 76 tgl 15 0 empty empty empty 17 7 0 10 -262144 -1 -1 0
1;
#X obj 196 53 sel 1;
#X obj 135 94 r cv-clock;
#X obj 135 115 spigot;
#X obj 135 140 tgl 15 0 empty empty empty 17 7 0 10 -262144 -1 -1 0
1;
#X obj 159 140 sel 0;
#X obj 223 101 s record-latch;
#X obj 231 81 print channel armed-3;
#X msg 627 161 2000;
#X obj 609 247 bng 15 250 50 0 empty empty empty 17 7 0 10 -262144
-1 -1;
#X obj 583 126 bng 15 250 50 0 empty empty empty 17 7 0 10 -262144
-1 -1;
#X text 686 161 number: set delay time and start;
#X obj 608 220 delay 1000 1 msec;
#X msg 627 187 tempo 0.5 msec;
#X obj 595 84 tgl 15 0 empty empty empty 17 7 0 10 -262144 -1 -1 0
1;
#X obj 611 275 tgl 15 0 empty empty empty 17 7 0 10 -262144 -1 -1 0
1;
#X obj 609 326 print off;
#X obj 456 218 print on;
#X msg 617 301 0;
#X obj 441 186 s bela_digitalOut12;
#X connect 0 0 1 0;
#X connect 0 0 8 0;
#X connect 1 0 4 0;
#X connect 1 0 6 0;
#X connect 1 0 7 0;
#X connect 1 1 2 0;
#X connect 1 1 4 1;
#X connect 2 0 7 0;
#X connect 2 0 9 0;
#X connect 4 0 10 0;
#X connect 6 0 9 0;
#X connect 11 0 0 0;
#X connect 13 0 11 0;
#X connect 14 0 16 0;
#X connect 15 0 18 1;
#X connect 15 0 21 0;
#X connect 15 0 22 0;
#X connect 16 0 15 0;
#X connect 17 0 18 0;
#X connect 18 0 19 0;
#X connect 19 0 20 0;
#X connect 19 0 13 0;
#X connect 19 0 11 1;
#X connect 20 0 15 0;
#X connect 23 0 27 0;
#X connect 24 0 30 0;
#X connect 25 0 27 0;
#X connect 27 0 24 0;
#X connect 28 0 27 0;
#X connect 29 0 32 0;
#X connect 29 0 34 0;
#X connect 30 0 33 0;
#X connect 33 0 31 0;
#X connect 33 0 29 0;
#X connect 33 0 34 0;
#X restore 1193 242 pd recorder-3;
#X obj 1280 224 r~ input;
#N canvas 523 0 864 499 recorder-4 0;
#X obj 117 217 tgl 15 0 empty empty empty 17 7 0 10 -262144 -1 -1 0
1;
#X obj 117 236 select 1 0;
#X msg 162 260 stop;
#X text 55 385 timer returns the duration of the recorded sample;
#X obj 199 335 timer 1 sample;
#X text 54 397 (interval between start and stop) in samples;
#X msg 117 260 start;
#X obj 88 352 outlet;
#X obj 239 240 s button-4;
#X obj 117 284 print recording-4;
#X obj 199 361 s sampleLength4;
#X obj 115 194 f;
#X text 180 171 debounce for 3ms;
#X obj 116 172 delay 200;
#X obj 157 11 inlet;
#X obj 196 75 tgl 15 0 empty empty empty 17 7 0 10 -262144 -1 -1 0
1;
#X obj 196 52 sel 1;
#X obj 135 93 r cv-clock;
#X obj 135 114 spigot;
#X obj 135 139 tgl 15 0 empty empty empty 17 7 0 10 -262144 -1 -1 0
1;
#X obj 159 139 sel 0;
#X obj 223 100 s record-latch;
#X obj 231 81 print channel armed-4;
#X msg 649 156 2000;
#X obj 631 242 bng 15 250 50 0 empty empty empty 17 7 0 10 -262144
-1 -1;
#X obj 605 121 bng 15 250 50 0 empty empty empty 17 7 0 10 -262144
-1 -1;
#X text 708 156 number: set delay time and start;
#X obj 630 215 delay 1000 1 msec;
#X msg 649 182 tempo 0.5 msec;
#X obj 617 79 tgl 15 0 empty empty empty 17 7 0 10 -262144 -1 -1 0
1;
#X obj 633 270 tgl 15 0 empty empty empty 17 7 0 10 -262144 -1 -1 0
1;
#X obj 631 321 print off;
#X obj 478 213 print on;
#X msg 639 296 0;
#X obj 463 181 s bela_digitalOut13;
#X connect 0 0 1 0;
#X connect 0 0 8 0;
#X connect 1 0 4 0;
#X connect 1 0 6 0;
#X connect 1 0 7 0;
#X connect 1 1 2 0;
#X connect 1 1 4 1;
#X connect 2 0 7 0;
#X connect 2 0 9 0;
#X connect 4 0 10 0;
#X connect 6 0 9 0;
#X connect 11 0 0 0;
#X connect 13 0 11 0;
#X connect 14 0 16 0;
#X connect 15 0 18 1;
#X connect 15 0 21 0;
#X connect 15 0 22 0;
#X connect 16 0 15 0;
#X connect 17 0 18 0;
#X connect 18 0 19 0;
#X connect 19 0 20 0;
#X connect 19 0 13 0;
#X connect 19 0 11 1;
#X connect 20 0 15 0;
#X connect 23 0 27 0;
#X connect 24 0 30 0;
#X connect 25 0 27 0;
#X connect 27 0 24 0;
#X connect 28 0 27 0;
#X connect 29 0 32 0;
#X connect 29 0 34 0;
#X connect 30 0 33 0;
#X connect 33 0 31 0;
#X connect 33 0 29 0;
#X connect 33 0 34 0;
#X restore 1343 242 pd recorder-4;
#X obj 1280 270 tabwrite~ sample-4;
#X obj 759 580 r flash-4;
#X obj 581 432 throw~ output;
#X obj 581 404 *~;
#N canvas 613 22 252 276 loop-4 0;
#X obj 36 17 inlet;
#X obj 39 204 outlet;
#X obj 53 137 print;
#X obj 60 83 i;
#X msg 34 108 0 \$1;
#X obj 36 62 bng 15 250 50 0 empty empty empty 17 7 0 10 -262144 -1
-1;
#X obj 116 136 delay 100;
#X obj 103 166 tgl 15 0 empty empty empty 17 7 0 10 -262144 -1 -1 0
1;
#X obj 67 47 r sampleLength4;
#X obj 109 204 s flash-4;
#X connect 0 0 5 0;
#X connect 0 0 6 0;
#X connect 0 0 7 0;
#X connect 3 0 4 0;
#X connect 4 0 1 0;
#X connect 5 0 3 0;
#X connect 6 0 7 0;
#X connect 7 0 9 0;
#X connect 8 0 3 1;
#X connect 8 0 3 0;
#X restore 659 319 pd loop-4;
#X obj 581 343 tabplay~ sample-4;
#X obj 259 597 threshold~ 0.3 50 0.1 50;
#X obj 259 620 s cv-clock;
#X obj 834 580 r record-latch;
#X obj 17 232 r cv-clock;
#X text 47 488 audio input;
#X text 44 590 audio output;
#X text 542 544 Leds show loop restart \, last two show when record
is armed;
#N canvas 0 22 310 226 selector 0;
#X obj 37 37 inlet~;
#X obj 173 54 metro 20;
#X obj 188 32 loadbang;
#X obj 37 79 snapshot~;
#X obj 37 120 i;
#X obj 37 141 change;
#X obj 37 162 outlet;
#X msg 118 142 0;
#X connect 0 0 3 0;
#X connect 1 0 3 0;
#X connect 2 0 1 0;
#X connect 2 0 7 0;
#X connect 3 0 4 0;
#X connect 4 0 5 0;
#X connect 5 0 6 0;
#X connect 7 0 6 0;
#X restore 862 404 pd selector;
#X obj 862 383 adc~ 7;
#X text 999 352 Pot 5 controls whether loop is locked to clock;
#X obj 862 425 send clock-select;
#X text 999 392 based on the clock signal. If it's all the way right
;
#X text 999 412 then the loops restarted are based on their length.
;
#X text 999 372 If it's all the way left then the loops are restarted
;
#X text 999 432 This means you can change the clock before recording
each;
#X text 999 452 for interesting polyrhythms but it is also prone to
phasing;
#X text 999 472 if the loops run for a long time.;
#X obj 92 234 r clock-select;
#X obj 92 265 == 0;
#X obj 132 265 == 1;
#X obj 93 291 spigot;
#X obj 143 291 spigot;
#X obj 207 232 r cv-clock;
#X obj 282 234 r clock-select;
#X obj 282 265 == 0;
#X obj 322 265 == 1;
#X obj 283 291 spigot;
#X obj 333 291 spigot;
#X obj 387 232 r cv-clock;
#X obj 462 234 r clock-select;
#X obj 462 265 == 0;
#X obj 502 265 == 1;
#X obj 463 291 spigot;
#X obj 513 291 spigot;
#X obj 567 232 r cv-clock;
#X obj 642 234 r clock-select;
#X obj 642 265 == 0;
#X obj 682 265 == 1;
#X obj 643 291 spigot;
#X obj 693 291 spigot;
#X text 852 28 clock received in CV in 7;
#X text 149 200 The first 4 pots control the volume of each loop;
#X text 245 525 CV In 7 is the clock;
#X text 185 548 Make sure it's configured as analog on the back;
#X text 290 914 Store up to 10 seconds for each channel;
#X text 852 8 Push button to arm channel for record \, record starts
on next;
#X text 28 24 4 Channel Looper;
#X text 28 34 =================;
#X text 28 54 This patch is a 4 channel looper designed for PEPPER.
;
#X text 28 74 The volume of each loop can be controlled and the recording
;
#X text 28 94 new samples happens when a clock signal is received.
;
#X text 28 114 Different clock signals can be used for each channel
giving;
#X text 28 134 complex polyrhythms.;
#X text 28 164 robert-jack 2020;
#X obj 865 357 hsl 80 15 0 1 0 0 empty empty empty -2 -8 0 10 -262144
-1 -1 0 1;
#X obj 887 172 delay 3;
#X text 1230 194 Read buttons with debounce;
#X obj 858 173 f;
#X obj 1027 172 delay 3;
#X obj 998 173 f;
#X obj 1177 172 delay 3;
#X obj 1148 173 f;
#X obj 1317 172 delay 3;
#X obj 1288 173 f;
#X obj 856 127 tgl 15 0 empty empty empty 17 7 0 10 -262144 -1 -1 0
1;
#X obj 1006 127 tgl 15 0 empty empty empty 17 7 0 10 -262144 -1 -1
0 1;
#X obj 1156 127 tgl 15 0 empty empty empty 17 7 0 10 -262144 -1 -1
0 1;
#X obj 1296 127 tgl 15 0 empty empty empty 17 7 0 10 -262144 -1 -1
0 1;
#X obj 518 625 bng 15 250 50 0 empty empty empty 17 7 0 10 -262144
-1 -1;
#X obj 558 625 bng 15 250 50 0 empty empty empty 17 7 0 10 -262144
-1 -1;
#X obj 598 625 bng 15 250 50 0 empty empty empty 17 7 0 10 -262144
-1 -1;
#X obj 638 625 bng 15 250 50 0 empty empty empty 17 7 0 10 -262144
-1 -1;
#X obj 678 625 bng 15 250 50 0 empty empty empty 17 7 0 10 -262144
-1 -1;
#X obj 718 625 bng 15 250 50 0 empty empty empty 17 7 0 10 -262144
-1 -1;
#X obj 758 625 bng 15 250 50 0 empty empty empty 17 7 0 10 -262144
-1 -1;
#X obj 798 625 bng 15 250 50 0 empty empty empty 17 7 0 10 -262144
-1 -1;
#X obj 838 625 bng 15 250 50 0 empty empty empty 17 7 0 10 -262144
-1 -1;
#X obj 878 625 bng 15 250 50 0 empty empty empty 17 7 0 10 -262144
-1 -1;
#X msg 1159 761 \; sample-1 const 0;
#X msg 1159 790 \; sample-2 const 0;
#X msg 1159 819 \; sample-3 const 0;
#X msg 1159 849 \; sample-4 const 0;
#X text 1156 739 Clear samples;
#X text 454 -5 TO DO;
#X text 454 75 2.1 Signal loop recording starting;
#X text 454 85 2.11 LED blink?;
#X text 454 95 2.2 Signal loop recording armed;
#X text 454 105 2.21 Signal which channel is armed?;
#X text 454 115 2.3 Signal loop restart?;
#X text 454 125 3.1 Rec controller Recording is armed with one push
\, and stopped when no more input.;
#X text 454 25 1.11 Incl. option to clear loops;
#X text 454 15 alt 1.1 Constant volume on all loops;
#X text 454 35 alt 1.2 Knobs for volume control of each loop;
#X text 454 45 OBS what happens when new sample is recorded on a channel
that already has a stored sample?;
#X obj 259 576 phasor~ 0.1;
#X text 211 656 Length (in ms) of the initial sample;
#X obj 213 766 bng 15 250 50 0 empty empty empty 17 7 0 10 -262144
-1 -1;
#X obj 247 757 metro;
#X msg 243 724 bang;
#X obj 240 779 s cv-clock;
#X obj 235 670 r sampleLength1;
#X floatatom 296 739 5 0 0 0 - - -;
#X obj 296 718 / 48;
#X obj 245 696 t b f;
#N canvas 487 301 865 402 rec_buttons 0;
#X obj 39 138 list;
#X obj 39 98 metro 200;
#X obj 39 72 loadbang;
#X text 109 98 Throttle printing;
#X obj 251 68 r bela_trill;
#X text 364 68 This receives the reading from the Trill sensor.;
#X text 368 91 Which will be prepended with the sensor_id;
#X obj 251 92 route mycraft;
#X obj 54 370 outlet;
#X obj 251 263 delay 3;
#X obj 222 264 f;
#X obj 251 144 unpack f f f f;
#X text 359 139 Read channel 0-3 as "buttons" with debounce \, for
recording loops;
#X floatatom 222 234 0 0 0 0 - - -;
#X obj 346 260 delay 3;
#X obj 317 261 f;
#X floatatom 317 231 0 0 0 0 - - -;
#X obj 449 257 delay 3;
#X obj 420 258 f;
#X floatatom 420 228 0 0 0 0 - - -;
#X obj 542 256 delay 3;
#X obj 513 257 f;
#X floatatom 513 227 0 0 0 0 - - -;
#X obj 54 348 bng 15 250 50 0 empty empty empty 17 7 0 10 -262144 -1
-1;
#X obj 57 304 sig~;
#X obj 53 326 threshold~ 0.5 100 0.01 100;
#X obj 261 371 outlet;
#X obj 261 349 bng 15 250 50 0 empty empty empty 17 7 0 10 -262144
-1 -1;
#X obj 264 305 sig~;
#X obj 260 327 threshold~ 0.5 100 0.01 100;
#X obj 469 370 outlet;
#X obj 469 348 bng 15 250 50 0 empty empty empty 17 7 0 10 -262144
-1 -1;
#X obj 472 304 sig~;
#X obj 468 326 threshold~ 0.5 100 0.01 100;
#X obj 668 369 outlet;
#X obj 668 347 bng 15 250 50 0 empty empty empty 17 7 0 10 -262144
-1 -1;
#X obj 671 303 sig~;
#X obj 667 325 threshold~ 0.5 100 0.01 100;
#X obj 222 209 > 0.02;
#X obj 317 206 > 0.02;
#X obj 420 203 > 0.02;
#X obj 513 202 > 0.02;
#X connect 1 0 0 0;
#X connect 2 0 1 0;
#X connect 4 0 7 0;
#X connect 7 0 0 1;
#X connect 7 0 11 0;
#X connect 9 0 10 0;
#X connect 10 0 24 0;
#X connect 11 0 38 0;
#X connect 11 1 39 0;
#X connect 11 2 40 0;
#X connect 11 3 41 0;
#X connect 13 0 9 0;
#X connect 13 0 10 1;
#X connect 14 0 15 0;
#X connect 15 0 28 0;
#X connect 16 0 15 1;
#X connect 16 0 14 0;
#X connect 17 0 18 0;
#X connect 18 0 32 0;
#X connect 19 0 18 1;
#X connect 19 0 17 0;
#X connect 20 0 21 0;
#X connect 21 0 36 0;
#X connect 22 0 21 1;
#X connect 22 0 20 0;
#X connect 23 0 8 0;
#X connect 24 0 25 0;
#X connect 25 0 23 0;
#X connect 27 0 26 0;
#X connect 28 0 29 0;
#X connect 29 0 27 0;
#X connect 31 0 30 0;
#X connect 32 0 33 0;
#X connect 33 0 31 0;
#X connect 35 0 34 0;
#X connect 36 0 37 0;
#X connect 37 0 35 0;
#X connect 38 0 13 0;
#X connect 39 0 16 0;
#X connect 40 0 19 0;
#X connect 41 0 22 0;
#X restore 1056 51 pd rec_buttons;
#N canvas 0 0 1432 876 audio_in 1;
#X obj 87 217 list;
#X obj 87 177 metro 200;
#X text 157 177 Throttle printing;
#X obj 295 77 r bela_trill;
#X obj 295 114 route mycraft;
#X obj 1373 382 osc~ 440;
#X obj 1373 403 *~;
#X obj 1436 402 *~;
#X obj 1518 400 *~;
#X text 15 409 amp control;
#X obj 1603 400 *~;
#X obj 1684 399 *~;
#X obj 1768 397 *~;
#X obj 1853 396 *~;
#X obj 1937 395 *~;
#X obj 1436 381 osc~ 466.16;
#X obj 1518 379 osc~ 493.88;
#X obj 1603 379 osc~ 523.25;
#X obj 1684 378 osc~ 554.37;
#X obj 1768 376 osc~ 587.33;
#X obj 1853 375 osc~ 622.25;
#X obj 1937 374 osc~ 659.25;
#X obj 295 153 unpack f f f f f f f f f f f f f f f f f f f f f f f
f f f f f f f;
#X obj 1308 405 *~;
#X obj 1227 405 *~;
#X obj 1146 404 *~;
#X obj 1066 405 *~;
#X obj 987 406 *~;
#X obj 905 406 *~;
#X obj 838 405 *~;
#X obj 838 384 osc~ 220;
#X obj 905 385 osc~ 246.94;
#X obj 987 385 osc~ 261.63;
#X obj 1066 384 osc~ 293.66;
#X obj 1146 383 osc~ 329.63;
#X obj 1227 384 osc~ 349.23;
#X obj 1308 384 osc~ 392;
#X obj 88 257 print audioIn;
#X text 730 159 Trill channel 5-29 for audio output;
#X obj 769 384 osc~ 196;
#X obj 769 407 *~;
#X obj 678 384 osc~ 174.61;
#X obj 678 407 *~;
#X obj 597 408 *~;
#X obj 512 408 *~;
#X obj 595 385 osc~ 164.81;
#X obj 512 385 osc~ 146.83;
#X obj 429 407 *~;
#X obj 344 407 *~;
#X obj 281 407 *~;
#X obj 225 407 *~;
#X obj 147 407 *~;
#X obj 429 384 osc~ 130.81;
#X obj 344 384 osc~ 123.47;
#X obj 281 384 osc~ 110;
#X obj 225 384 osc~ 98;
#X obj 147 384 osc~ 87.31;
#X obj 69 407 *~;
#X obj 69 384 osc~ 82.41;
#X obj 66 136 inlet;
#X obj 872 646 outlet~;
#X obj 349 363 *~ 440;
#X obj 514 363 *~ 440;
#X obj 1067 361 *~ 440;
#X obj 353 342 * 10;
#X obj 517 341 * 10;
#X obj 1031 363 * 15;
#X connect 0 0 37 0;
#X connect 1 0 0 0;
#X connect 3 0 4 0;
#X connect 4 0 0 1;
#X connect 4 0 22 0;
#X connect 5 0 6 0;
#X connect 6 0 60 0;
#X connect 7 0 60 0;
#X connect 8 0 60 0;
#X connect 10 0 60 0;
#X connect 11 0 60 0;
#X connect 12 0 60 0;
#X connect 13 0 60 0;
#X connect 14 0 60 0;
#X connect 15 0 7 0;
#X connect 16 0 8 0;
#X connect 17 0 10 0;
#X connect 18 0 11 0;
#X connect 19 0 12 0;
#X connect 20 0 13 0;
#X connect 21 0 14 0;
#X connect 22 5 57 1;
#X connect 22 6 51 1;
#X connect 22 7 50 1;
#X connect 22 8 49 1;
#X connect 22 9 64 0;
#X connect 22 10 47 1;
#X connect 22 11 65 0;
#X connect 22 12 43 1;
#X connect 22 13 42 1;
#X connect 22 14 40 1;
#X connect 22 15 29 1;
#X connect 22 16 28 1;
#X connect 22 17 27 1;
#X connect 22 19 66 0;
#X connect 22 20 25 1;
#X connect 22 21 24 1;
#X connect 22 22 23 1;
#X connect 22 23 6 1;
#X connect 22 25 7 1;
#X connect 22 26 8 1;
#X connect 22 27 10 1;
#X connect 23 0 60 0;
#X connect 24 0 60 0;
#X connect 25 0 60 0;
#X connect 26 0 60 0;
#X connect 27 0 60 0;
#X connect 28 0 60 0;
#X connect 29 0 60 0;
#X connect 30 0 29 0;
#X connect 31 0 28 0;
#X connect 32 0 27 0;
#X connect 33 0 26 0;
#X connect 34 0 25 0;
#X connect 35 0 24 0;
#X connect 36 0 23 0;
#X connect 39 0 40 0;
#X connect 40 0 60 0;
#X connect 41 0 42 0;
#X connect 42 0 60 0;
#X connect 43 0 60 0;
#X connect 44 0 60 0;
#X connect 45 0 43 0;
#X connect 46 0 44 0;
#X connect 47 0 60 0;
#X connect 48 0 60 0;
#X connect 49 0 60 0;
#X connect 50 0 60 0;
#X connect 51 0 60 0;
#X connect 52 0 47 0;
#X connect 53 0 48 0;
#X connect 54 0 49 0;
#X connect 55 0 50 0;
#X connect 56 0 51 0;
#X connect 57 0 60 0;
#X connect 58 0 57 0;
#X connect 59 0 1 0;
#X connect 61 0 53 0;
#X connect 62 0 46 0;
#X connect 63 0 33 0;
#X connect 64 0 61 0;
#X connect 64 0 48 1;
#X connect 65 0 62 0;
#X connect 65 0 44 1;
#X connect 66 0 26 1;
#X restore 58 538 pd audio_in;
#X obj 50 510 loadbang;
#X obj 58 559 s~ input;
#X obj 45 -270 loadbang;
#X obj 45 -171 s bela_setTrill;
#X text 109 -270 First initialise the Trill sensor;
#X text 79 -237 Message: [new <sensor_id> <bus> <device> <address=255>(
;
#X text 44 -105 device that was successfully initialised. The message
;
#X text 44 -95 will contain: <sensor_id> <device> <mode> <address>
;
#X text 43 -116 bela_trillCreated will receive a message for each;
#X obj 48 -63 r bela_trillCreated;
#X obj 48 -34 print bela_trillCreated;
#X text 45 -142 -------------;
#X msg 613 386 1;
#X obj 615 364 loadbang;
#X msg 423 386 1;
#X obj 425 364 loadbang;
#X msg 233 386 1;
#X obj 235 364 loadbang;
#X msg 73 386 1;
#X obj 75 364 loadbang;
#X obj 1101 761 bng 15 250 50 0 empty empty empty 17 7 0 10 -262144
-1 -1;
#N canvas 131 29 758 461 clear_samples 0;
#X obj 39 138 list;
#X obj 39 98 metro 200;
#X obj 39 72 loadbang;
#X text 109 98 Throttle printing;
#X obj 251 68 r bela_trill;
#X text 364 68 This receives the reading from the Trill sensor.;
#X text 368 91 Which will be prepended with the sensor_id;
#X obj 251 92 route mycraft;
#X obj 174 370 outlet;
#X obj 371 263 delay 3;
#X obj 342 264 f;
#X floatatom 342 234 0 0 0 0 - - -;
#X obj 174 348 bng 15 250 50 0 empty empty empty 17 7 0 10 -262144
-1 -1;
#X obj 177 304 sig~;
#X obj 173 326 threshold~ 0.5 100 0.01 100;
#X obj 251 144 unpack f f f f f;
#X text 359 139 Read channel 4 as "button" with debounce \, for clearing
all loops;
#X obj 342 209 > 0.01;
#X connect 1 0 0 0;
#X connect 2 0 1 0;
#X connect 4 0 7 0;
#X connect 7 0 0 1;
#X connect 7 0 15 0;
#X connect 9 0 10 0;
#X connect 10 0 13 0;
#X connect 11 0 9 0;
#X connect 11 0 10 1;
#X connect 12 0 8 0;
#X connect 13 0 14 0;
#X connect 14 0 12 0;
#X connect 15 4 17 0;
#X connect 17 0 11 0;
#X restore 1098 725 pd clear_samples;
#X text 514 716 initialize digital outs;
#X obj 1112 888 print samples cleared;
#N canvas 0 0 1432 748 audio_in 0;
#X obj 86 209 list;
#X obj 86 169 metro 200;
#X text 156 169 Throttle printing;
#X obj 294 69 r bela_trill;
#X obj 294 106 route mycraft;
#X obj 1192 374 osc~ 440;
#X obj 1192 395 *~;
#X obj 1192 353 *~ 880;
#X obj 1255 394 *~;
#X obj 1255 352 *~ 880;
#X obj 1337 392 *~;
#X obj 1337 350 *~ 880;
#X text 571 354 freq control;
#X text 577 398 amp control;
#X obj 1422 392 *~;
#X obj 1422 350 *~ 880;
#X obj 1503 391 *~;
#X obj 1503 349 *~ 880;
#X obj 1587 389 *~;
#X obj 1587 347 *~ 880;
#X obj 1672 388 *~;
#X obj 1672 346 *~ 880;
#X obj 1756 387 *~;
#X obj 1756 345 *~ 880;
#X obj 1255 373 osc~ 466.16;
#X obj 1337 371 osc~ 493.88;
#X obj 1422 371 osc~ 523.25;
#X obj 1503 370 osc~ 554.37;
#X obj 1587 368 osc~ 587.33;
#X obj 1672 367 osc~ 622.25;
#X obj 1756 366 osc~ 659.25;
#X obj 294 145 unpack f f f f f f f f f f f f f f f f f f f f f f f
f f f f f f f;
#X obj 1127 397 *~;
#X obj 1127 355 *~ 880;
#X obj 1046 397 *~;
#X obj 1046 355 *~ 880;
#X obj 965 396 *~;
#X obj 965 354 *~ 880;
#X obj 885 397 *~;
#X obj 885 355 *~ 880;
#X obj 806 398 *~;
#X obj 806 356 *~ 880;
#X obj 724 398 *~;
#X obj 724 356 *~ 880;
#X obj 657 397 *~;
#X obj 657 355 *~ 880;
#X obj 657 376 osc~ 220;
#X obj 724 377 osc~ 246.94;
#X obj 806 377 osc~ 261.63;
#X obj 885 376 osc~ 293.66;
#X obj 965 375 osc~ 329.63;
#X obj 1046 376 osc~ 349.23;
#X obj 1127 376 osc~ 392;
#X obj 87 249 print audioIn;
#X obj 65 128 inlet;
#X obj 1144 561 outlet~;
#X text 677 148 Trill channel 5-29 for audio output;
#X obj 301 395 clone clone_synth 32;
#X msg 301 372 next \$1;
#X obj 303 416 *~;
#X connect 1 0 0 0;
#X connect 3 0 4 0;
#X connect 4 0 0 1;
#X connect 4 0 31 0;
#X connect 5 0 6 0;
#X connect 6 0 55 0;
#X connect 7 0 5 0;
#X connect 8 0 55 0;
#X connect 9 0 24 0;
#X connect 10 0 55 0;
#X connect 11 0 25 0;
#X connect 14 0 55 0;
#X connect 15 0 26 0;
#X connect 16 0 55 0;
#X connect 17 0 27 0;
#X connect 18 0 55 0;
#X connect 19 0 28 0;
#X connect 20 0 55 0;
#X connect 21 0 29 0;
#X connect 22 0 55 0;
#X connect 23 0 30 0;
#X connect 24 0 8 0;
#X connect 25 0 10 0;
#X connect 26 0 14 0;
#X connect 27 0 16 0;
#X connect 28 0 18 0;
#X connect 29 0 20 0;
#X connect 30 0 22 0;
#X connect 31 5 58 0;
#X connect 31 5 59 1;
#X connect 31 15 45 0;
#X connect 31 15 44 1;
#X connect 31 16 43 0;
#X connect 31 16 42 1;
#X connect 31 17 41 0;
#X connect 31 17 40 1;
#X connect 31 18 39 0;
#X connect 31 18 38 1;
#X connect 31 19 37 0;
#X connect 31 19 36 1;
#X connect 31 20 35 0;
#X connect 31 20 34 1;
#X connect 31 21 33 0;
#X connect 31 21 32 1;
#X connect 31 22 7 0;
#X connect 31 22 6 1;
#X connect 31 23 9 0;
#X connect 31 23 8 1;
#X connect 31 24 11 0;
#X connect 31 24 10 1;
#X connect 31 25 15 0;
#X connect 31 25 14 1;
#X connect 31 26 17 0;
#X connect 31 26 16 1;
#X connect 31 27 19 0;
#X connect 31 27 18 1;
#X connect 31 28 21 0;
#X connect 31 28 20 1;
#X connect 31 29 23 0;
#X connect 31 29 22 1;
#X connect 32 0 55 0;
#X connect 33 0 52 0;
#X connect 34 0 55 0;
#X connect 35 0 51 0;
#X connect 36 0 55 0;
#X connect 37 0 50 0;
#X connect 38 0 55 0;
#X connect 39 0 49 0;
#X connect 40 0 55 0;
#X connect 41 0 48 0;
#X connect 42 0 55 0;
#X connect 43 0 47 0;
#X connect 44 0 55 0;
#X connect 45 0 46 0;
#X connect 46 0 44 0;
#X connect 47 0 42 0;
#X connect 48 0 40 0;
#X connect 49 0 38 0;
#X connect 50 0 36 0;
#X connect 51 0 34 0;
#X connect 52 0 32 0;
#X connect 54 0 1 0;
#X connect 58 0 57 0;
#X restore 117 515 pd audio_in;
#X text 140 502 WIP;
#X obj 19 568 dac~;
#X msg 1428 937 2000;
#X obj 1410 1023 bng 15 250 50 0 empty empty empty 17 7 0 10 -262144
-1 -1;
#X text 1487 937 number: set delay time and start;
#X obj 1409 996 delay 1000 1 msec;
#X msg 1428 963 tempo 0.5 msec;
#X obj 1396 860 tgl 15 0 empty empty empty 17 7 0 10 -262144 -1 -1
0 1;
#X obj 1412 1051 tgl 15 0 empty empty empty 17 7 0 10 -262144 -1 -1
0 1;
#X obj 1410 1102 print off;
#X obj 1257 994 print on;
#X msg 1418 1077 0;
#X obj 444 735 loadbang;
#X obj 444 781 s bela_setDigital;
#X msg 444 758 out 17;
#X obj 885 734 loadbang;
#X obj 885 780 s bela_setDigital;
#X msg 885 757 out 18;
#X obj 554 735 loadbang;
#X obj 554 781 s bela_setDigital;
#X obj 664 734 loadbang;
#X obj 664 780 s bela_setDigital;
#X obj 775 733 loadbang;
#X obj 775 779 s bela_setDigital;
#X msg 554 758 out 11;
#X msg 664 757 out 12;
#X msg 775 756 out 13;
#X obj 1242 962 s bela_digitalOut18;
#X text 437 -207 pre 6 - threshold 0.56 vs 0.01;
#N canvas 0 0 1432 876 audio_in 0;
#X obj 87 217 list;
#X obj 87 177 metro 200;
#X text 157 177 Throttle printing;
#X obj 716 12 r bela_trill;
#X obj 716 49 route mycraft;
#X obj 1373 382 osc~ 440;
#X obj 1373 403 *~;
#X obj 1436 402 *~;
#X obj 1518 400 *~;
#X text 15 409 amp control;
#X obj 1603 400 *~;
#X obj 1684 399 *~;
#X obj 1768 397 *~;
#X obj 1853 396 *~;
#X obj 1937 395 *~;
#X obj 1436 381 osc~ 466.16;
#X obj 1518 379 osc~ 493.88;
#X obj 1603 379 osc~ 523.25;
#X obj 1684 378 osc~ 554.37;
#X obj 1768 376 osc~ 587.33;
#X obj 1853 375 osc~ 622.25;
#X obj 1937 374 osc~ 659.25;
#X obj 716 88 unpack f f f f f f f f f f f f f f f f f f f f f f f
f f f f f f f;
#X obj 1308 405 *~;
#X obj 1227 405 *~;
#X obj 1146 404 *~;
#X obj 1066 405 *~;
#X obj 987 406 *~;
#X obj 905 406 *~;
#X obj 838 405 *~;
#X obj 838 384 osc~ 220;
#X obj 905 385 osc~ 246.94;
#X obj 987 385 osc~ 261.63;
#X obj 1066 384 osc~ 293.66;
#X obj 1146 383 osc~ 329.63;
#X obj 1227 384 osc~ 349.23;
#X obj 1308 384 osc~ 392;
#X obj 88 257 print audioIn;
#X text 1151 94 Trill channel 5-29 for audio output;
#X obj 769 384 osc~ 196;
#X obj 769 407 *~;
#X obj 678 384 osc~ 174.61;
#X obj 678 407 *~;
#X obj 597 408 *~;
#X obj 512 408 *~;
#X obj 595 385 osc~ 164.81;
#X obj 512 385 osc~ 146.83;
#X obj 429 407 *~;
#X obj 344 407 *~;
#X obj 281 407 *~;
#X obj 225 407 *~;
#X obj 147 407 *~;
#X obj 429 384 osc~ 130.81;
#X obj 344 384 osc~ 123.47;
#X obj 281 384 osc~ 110;
#X obj 225 384 osc~ 98;
#X obj 147 384 osc~ 87.31;
#X obj 69 407 *~;
#X obj 69 384 osc~ 82.41;
#X obj 66 136 inlet;
#X obj 872 646 outlet~;
#X obj 349 363 *~ 440;
#X obj 514 363 *~ 440;
#X obj 1067 361 *~ 440;
#X obj 358 342 > 0.3;
#X obj 435 361 > 0.3;
#X obj 518 339 > 0.3;
#X obj 598 355 > 0.3;
#X obj 678 355 > 0.3;
#X obj 778 355 > 0.3;
#X obj 839 355 > 0.3;
#X obj 909 355 > 0.3;
#X obj 989 355 > 0.3;
#X obj 1069 338 > 0.3;
#X obj 1150 356 > 0.3;
#X obj 1229 357 > 0.3;
#X obj 1309 355 > 0.3;
#X obj 1369 355 > 0.3;
#X obj 1431 355 > 0.3;
#X obj 1521 355 > 0.3;
#X obj 1611 355 > 0.3;
#X obj 108 355 > 0.01;
#X obj 164 357 > 0.01;
#X obj 228 355 > 0.01;
#X obj 285 354 > 0.01;
#X connect 0 0 37 0;
#X connect 1 0 0 0;
#X connect 3 0 4 0;
#X connect 4 0 0 1;
#X connect 4 0 22 0;
#X connect 5 0 6 0;
#X connect 6 0 60 0;
#X connect 7 0 60 0;
#X connect 8 0 60 0;
#X connect 10 0 60 0;
#X connect 11 0 60 0;
#X connect 12 0 60 0;
#X connect 13 0 60 0;
#X connect 14 0 60 0;
#X connect 15 0 7 0;
#X connect 16 0 8 0;
#X connect 17 0 10 0;
#X connect 18 0 11 0;
#X connect 19 0 12 0;
#X connect 20 0 13 0;
#X connect 21 0 14 0;
#X connect 22 5 81 0;
#X connect 22 6 82 0;
#X connect 22 7 83 0;
#X connect 22 8 84 0;
#X connect 22 9 64 0;
#X connect 22 10 65 0;
#X connect 22 11 66 0;
#X connect 22 12 67 0;
#X connect 22 13 68 0;
#X connect 22 14 69 0;
#X connect 22 15 70 0;
#X connect 22 16 71 0;
#X connect 22 17 72 0;
#X connect 22 19 73 0;
#X connect 22 20 74 0;
#X connect 22 21 75 0;
#X connect 22 22 76 0;
#X connect 22 23 77 0;
#X connect 22 25 78 0;
#X connect 22 26 79 0;
#X connect 22 27 80 0;
#X connect 23 0 60 0;
#X connect 24 0 60 0;
#X connect 25 0 60 0;
#X connect 26 0 60 0;
#X connect 27 0 60 0;
#X connect 28 0 60 0;
#X connect 29 0 60 0;
#X connect 30 0 29 0;
#X connect 31 0 28 0;
#X connect 32 0 27 0;
#X connect 33 0 26 0;
#X connect 34 0 25 0;
#X connect 35 0 24 0;
#X connect 36 0 23 0;
#X connect 39 0 40 0;
#X connect 40 0 60 0;
#X connect 41 0 42 0;
#X connect 42 0 60 0;
#X connect 43 0 60 0;
#X connect 44 0 60 0;
#X connect 45 0 43 0;
#X connect 46 0 44 0;
#X connect 47 0 60 0;
#X connect 48 0 60 0;
#X connect 49 0 60 0;
#X connect 50 0 60 0;
#X connect 51 0 60 0;
#X connect 52 0 47 0;
#X connect 53 0 48 0;
#X connect 54 0 49 0;
#X connect 55 0 50 0;
#X connect 56 0 51 0;
#X connect 57 0 60 0;
#X connect 58 0 57 0;
#X connect 59 0 1 0;
#X connect 61 0 53 0;
#X connect 62 0 46 0;
#X connect 63 0 33 0;
#X connect 64 0 61 0;
#X connect 64 0 48 1;
#X connect 65 0 47 1;
#X connect 66 0 44 1;
#X connect 66 0 62 0;
#X connect 67 0 43 1;
#X connect 68 0 42 1;
#X connect 69 0 40 1;
#X connect 70 0 29 1;
#X connect 71 0 28 1;
#X connect 72 0 27 1;
#X connect 73 0 26 1;
#X connect 73 0 63 0;
#X connect 74 0 25 1;
#X connect 75 0 24 1;
#X connect 76 0 23 1;
#X connect 77 0 6 1;
#X connect 78 0 7 1;
#X connect 79 0 8 1;
#X connect 80 0 10 1;
#X connect 81 0 57 1;
#X connect 82 0 51 1;
#X connect 83 0 50 1;
#X connect 84 0 49 1;
#X restore 203 491 pd audio_in;
#X text 205 476 with thresholds;
#X text 726 -209 6 \, 0.01;
#X msg 45 -210 new mycraft 1 CRAFT \, prescaler mycraft 6 \, threshold
mycraft 0.01;
#X connect 3 0 19 0;
#X connect 3 1 59 0;
#X connect 5 0 1 0;
#X connect 5 0 1 1;
#X connect 9 0 2 0;
#X connect 10 0 2 0;
#X connect 11 0 3 0;
#X connect 12 0 107 0;
#X connect 12 0 106 0;
#X connect 13 0 15 0;
#X connect 14 0 15 0;
#X connect 17 0 18 0;
#X connect 18 0 20 0;
#X connect 18 1 65 0;
#X connect 19 0 4 0;
#X connect 20 0 16 0;
#X connect 21 0 108 0;
#X connect 21 0 109 0;
#X connect 23 0 22 0;
#X connect 24 0 25 0;
#X connect 25 0 23 0;
#X connect 25 1 71 0;
#X connect 26 0 110 0;
#X connect 26 0 111 0;
#X connect 27 0 28 0;
#X connect 29 0 28 0;
#X connect 30 0 32 0;
#X connect 31 0 32 0;
#X connect 33 0 112 0;
#X connect 33 0 113 0;
#X connect 35 0 34 0;
#X connect 36 0 37 0;
#X connect 37 0 35 0;
#X connect 37 1 77 0;
#X connect 40 0 114 0;
#X connect 40 0 115 0;
#X connect 41 0 58 0;
#X connect 45 0 48 0;
#X connect 46 0 45 0;
#X connect 55 0 56 0;
#X connect 55 0 57 0;
#X connect 56 0 58 1;
#X connect 57 0 59 1;
#X connect 58 0 11 0;
#X connect 59 0 11 0;
#X connect 60 0 64 0;
#X connect 61 0 62 0;
#X connect 61 0 63 0;
#X connect 62 0 64 1;
#X connect 63 0 65 1;
#X connect 64 0 17 0;
#X connect 65 0 17 0;
#X connect 66 0 70 0;
#X connect 67 0 68 0;
#X connect 67 0 69 0;
#X connect 68 0 70 1;
#X connect 69 0 71 1;
#X connect 70 0 24 0;
#X connect 71 0 24 0;
#X connect 72 0 76 0;
#X connect 73 0 74 0;
#X connect 73 0 75 0;
#X connect 74 0 76 1;
#X connect 75 0 77 1;
#X connect 76 0 36 0;
#X connect 77 0 36 0;
#X connect 92 0 46 0;
#X connect 93 0 95 0;
#X connect 95 0 9 0;
#X connect 96 0 97 0;
#X connect 97 0 14 0;
#X connect 98 0 99 0;
#X connect 99 0 29 0;
#X connect 100 0 101 0;
#X connect 101 0 31 0;
#X connect 102 0 95 1;
#X connect 102 0 93 0;
#X connect 103 0 97 1;
#X connect 103 0 96 0;
#X connect 104 0 99 1;
#X connect 104 0 98 0;
#X connect 105 0 101 1;
#X connect 105 0 100 0;
#X connect 132 0 38 0;
#X connect 135 0 134 0;
#X connect 135 0 137 0;
#X connect 136 0 135 0;
#X connect 138 0 141 0;
#X connect 139 0 135 1;
#X connect 140 0 139 0;
#X connect 141 0 136 0;
#X connect 141 1 140 0;
#X connect 142 0 102 0;
#X connect 142 1 103 0;
#X connect 142 2 104 0;
#X connect 142 3 105 0;
#X connect 143 0 145 0;
#X connect 143 0 170 0;
#X connect 143 0 170 1;
#X connect 144 0 143 0;
#X connect 146 0 201 0;
#X connect 153 0 154 0;
#X connect 156 0 35 1;
#X connect 157 0 156 0;
#X connect 158 0 23 1;
#X connect 159 0 158 0;
#X connect 160 0 20 1;
#X connect 161 0 160 0;
#X connect 162 0 19 1;
#X connect 163 0 162 0;
#X connect 164 0 116 0;
#X connect 164 0 117 0;
#X connect 164 0 118 0;
#X connect 164 0 119 0;
#X connect 164 0 167 0;
#X connect 165 0 164 0;
#X connect 171 0 174 0;
#X connect 172 0 177 0;
#X connect 174 0 172 0;
#X connect 175 0 174 0;
#X connect 176 0 179 0;
#X connect 176 0 196 0;
#X connect 177 0 180 0;
#X connect 180 0 178 0;
#X connect 180 0 176 0;
#X connect 181 0 183 0;
#X connect 183 0 182 0;
#X connect 184 0 186 0;
#X connect 186 0 185 0;
#X connect 187 0 193 0;
#X connect 189 0 194 0;
#X connect 191 0 195 0;
#X connect 193 0 188 0;
#X connect 194 0 190 0;
#X connect 195 0 192 0;
#X connect 201 0 147 0;
